<?xml version="1.0"?>
<svg xmlns="http://www.w3.org/2000/svg" xmlns:xlink="http://www.w3.org/1999/xlink" xmlns:svgjs="http://svgjs.com/svgjs" version="1.1" width="512" height="512" x="0" y="0" viewBox="0 0 512 512" style="enable-background:new 0 0 512 512" xml:space="preserve" class=""><g><g xmlns="http://www.w3.org/2000/svg" id="Kiosk"><path d="M464,440H448V416a8,8,0,0,0-8-8H424V214.624A23.992,23.992,0,0,0,456,192V160a8.032,8.032,0,0,0-.84-3.58l-48-96A8.011,8.011,0,0,0,400,56H112a8.011,8.011,0,0,0-7.16,4.42l-48,96A8.032,8.032,0,0,0,56,160v32a23.992,23.992,0,0,0,32,22.624V408H72a8,8,0,0,0-8,8v24H16a8,8,0,0,0,0,16H464a8,8,0,0,0,0-16ZM408,192a8,8,0,0,1-16,0V168h16Zm-32,0a8,8,0,0,1-16,0V168h16Zm-32,0a8,8,0,0,1-16,0V168h16Zm-32,0a8,8,0,0,1-16,0V168h16Zm-32,0a8,8,0,0,1-16,0V168h16Zm-32,0a8,8,0,0,1-16,0V168h16Zm-32,0a8,8,0,0,1-16,0V168h16Zm-32,0a8,8,0,0,1-16,0V168h16Zm-32,0a8,8,0,0,1-16,0V168h16Zm-32,0a8,8,0,0,1-16,0V168h16Zm-16,22.624a23.944,23.944,0,0,0,16,0V312H104Zm32,0a23.943,23.943,0,0,0,24-4.755,23.943,23.943,0,0,0,32,0,23.943,23.943,0,0,0,32,0,23.943,23.943,0,0,0,32,0,23.943,23.943,0,0,0,32,0,23.943,23.943,0,0,0,32,0,23.943,23.943,0,0,0,32,0,23.943,23.943,0,0,0,24,4.755V312H136Zm256,0a23.944,23.944,0,0,0,16,0V312H392ZM432,200a8.009,8.009,0,0,1-8-8V168h16v24A8.009,8.009,0,0,1,432,200ZM116.94,72H395.06l39.991,80H76.949ZM80,200a8.009,8.009,0,0,1-8-8V168H88v24A8.009,8.009,0,0,1,80,200Zm24,128H408v80H104ZM80,440V424H432v16Z" fill="#2c2c54" data-original="#000000" style="" class=""/><path d="M496,440h-8a8,8,0,0,0,0,16h8a8,8,0,0,0,0-16Z" fill="#2c2c54" data-original="#000000" style="" class=""/><path d="M296,336H216a8,8,0,0,0-8,8v48a8,8,0,0,0,8,8h80a8,8,0,0,0,8-8V344A8,8,0,0,0,296,336Zm-8,48H224V352h64Z" fill="#2c2c54" data-original="#000000" style="" class=""/></g></g></svg>
